<?xml version="1.0" standalone="no"?>
<!DOCTYPE svg PUBLIC "-//W3C//DTD SVG 20010904//EN"
 "http://www.w3.org/TR/2001/REC-SVG-20010904/DTD/svg10.dtd">
<svg version="1.0" xmlns="http://www.w3.org/2000/svg"
 width="6144.000000pt" height="6144.000000pt" viewBox="0 0 6144.000000 6144.000000"
 preserveAspectRatio="xMidYMid meet">
<metadata>
Created by potrace 1.16, written by Peter Selinger 2001-2019
</metadata>
<g transform="translate(0.000000,6144.000000) scale(0.100000,-0.100000)"
fill="#000000" stroke="none">
<path d="M30285 45039 c-622 -19 -1332 -111 -1960 -255 -600 -138 -1102 -298
-1654 -528 -221 -93 -784 -378 -1052 -533 -161 -94 -545 -352 -744 -502 -1149
-862 -1869 -1801 -2302 -3006 -145 -405 -226 -771 -275 -1235 -17 -165 -17
-844 0 -995 63 -547 166 -969 354 -1440 146 -368 408 -840 668 -1205 362 -508
968 -1117 1485 -1491 526 -382 840 -576 1291 -802 586 -293 1236 -534 1979
-733 474 -127 1259 -254 1880 -304 212 -17 1067 -24 1360 -11 967 44 1867 213
2840 535 136 45 427 156 530 201 17 8 89 39 160 70 464 202 775 361 1085 555
58 37 130 82 160 101 233 145 576 389 798 567 377 302 810 745 1122 1147 104
135 368 528 455 680 194 336 373 753 486 1129 92 305 124 467 191 956 21 154
17 935 -5 1115 -73 578 -201 1044 -442 1605 -64 149 -201 424 -267 533 -104
173 -208 340 -245 395 -24 35 -43 65 -43 68 0 5 -16 28 -95 134 -38 52 -172
223 -188 240 -8 8 -51 60 -97 115 -360 436 -925 930 -1482 1298 -513 339
-1056 632 -1545 833 -560 230 -1066 386 -1716 529 -139 31 -270 60 -292 65
-327 74 -1083 152 -1660 170 -319 10 -425 10 -780 -1z m1055 -1279 c426 -33
927 -107 1395 -206 456 -96 1046 -275 1330 -404 11 -4 96 -41 190 -80 479
-203 842 -395 1227 -651 512 -340 992 -754 1292 -1114 190 -229 379 -491 498
-695 50 -85 208 -392 208 -405 0 -2 11 -28 24 -57 85 -189 149 -372 200 -568
106 -414 148 -712 147 -1065 0 -255 -12 -430 -42 -610 -79 -482 -186 -821
-383 -1221 -229 -467 -500 -839 -906 -1245 -357 -358 -637 -581 -1140 -907
-135 -88 -147 -84 -77 25 246 383 471 932 556 1354 70 350 96 514 112 729 12
155 6 491 -12 645 -52 461 -117 768 -235 1125 -30 91 -58 174 -63 185 -4 11
-23 58 -41 105 -79 205 -225 492 -365 719 -72 116 -262 386 -360 512 -299 383
-742 782 -1187 1072 -455 297 -809 473 -1233 612 -462 153 -819 218 -1435 261
-215 15 -275 16 -485 5 -369 -19 -494 -31 -790 -81 -297 -51 -426 -82 -740
-183 -450 -144 -797 -309 -1233 -589 -314 -201 -588 -424 -880 -716 -205 -207
-302 -317 -446 -512 -141 -188 -233 -330 -342 -520 -282 -497 -442 -933 -549
-1499 -104 -556 -123 -1035 -54 -1381 73 -369 268 -692 559 -926 270 -218 584
-397 924 -529 89 -35 479 -191 504 -202 27 -12 9 29 -48 105 -111 149 -274
436 -360 632 -23 52 -48 109 -55 125 -73 167 -175 560 -227 880 -20 124 -23
174 -22 440 0 292 1 305 32 485 37 215 50 268 104 448 106 355 274 718 461
997 327 489 746 880 1287 1202 203 121 516 269 710 335 657 223 1373 276 2080
153 554 -96 1099 -332 1600 -690 358 -257 539 -428 805 -760 198 -248 321
-441 440 -688 229 -479 345 -970 345 -1462 0 -235 -11 -368 -46 -560 -108
-594 -313 -1053 -716 -1596 -102 -138 -143 -185 -263 -309 -341 -351 -648
-579 -1070 -795 -361 -184 -666 -288 -1005 -344 -677 -111 -1210 -111 -2065
-1 -636 82 -1152 205 -1810 433 -839 291 -1697 753 -2261 1218 -49 41 -123
101 -164 134 -173 139 -501 477 -695 717 -90 111 -243 324 -327 458 -109 171
-244 435 -333 652 -15 35 -32 77 -40 93 -31 70 -127 370 -154 485 -139 575
-156 1074 -57 1642 118 675 406 1322 844 1898 153 201 235 293 432 491 465
466 789 714 1460 1114 510 304 1348 641 2045 821 513 133 1228 242 1795 274
193 11 928 4 1110 -10z"/>
<path d="M22415 34842 c-52 -11 -91 -88 -112 -220 -24 -147 -24 -592 0 -732
87 -511 233 -936 465 -1355 93 -169 309 -508 404 -635 292 -389 482 -595 868
-941 352 -316 482 -417 870 -676 612 -407 1095 -665 1725 -920 214 -87 632
-229 905 -308 1150 -334 2477 -496 3635 -445 327 14 779 51 990 80 304 42 383
54 480 70 338 58 966 204 1300 302 356 104 833 271 1091 381 342 147 896 429
1132 578 52 33 96 59 98 59 2 0 89 56 193 125 300 196 456 313 731 549 527
452 739 675 1098 1153 218 290 358 517 492 798 205 427 288 702 361 1190 15
98 19 458 6 589 -18 189 -48 297 -95 342 -42 39 -96 26 -237 -55 -85 -48 -137
-91 -314 -258 -317 -300 -407 -397 -533 -578 -79 -113 -107 -162 -231 -405
-320 -628 -469 -857 -798 -1225 -190 -213 -396 -404 -759 -706 -120 -99 -349
-260 -575 -404 -149 -95 -459 -267 -665 -369 -577 -286 -1389 -565 -2010 -691
-479 -97 -738 -141 -960 -164 -776 -83 -1251 -97 -1810 -56 -440 32 -750 66
-1020 111 -637 106 -1110 220 -1630 393 -168 56 -566 211 -698 272 -35 16 -65
29 -68 29 -8 0 -395 194 -469 235 -406 224 -804 490 -1085 723 -69 57 -159
131 -200 165 -158 131 -512 497 -655 678 -66 83 -175 235 -175 245 0 2 -16 27
-35 54 -19 27 -35 54 -35 59 0 5 -6 14 -14 20 -8 7 -22 26 -31 44 -9 18 -25
46 -36 62 -10 17 -25 42 -31 58 -7 15 -16 27 -20 27 -4 0 -8 6 -8 14 0 7 -9
25 -20 39 -11 14 -20 31 -20 38 0 7 -6 20 -14 28 -15 17 -51 81 -124 221 -40
77 -69 130 -134 245 -30 53 -37 65 -75 120 -18 25 -33 48 -33 50 0 8 -60 93
-75 105 -8 7 -15 17 -15 22 0 5 -20 35 -45 66 -25 31 -53 68 -63 80 -9 13 -28
36 -42 50 -14 15 -54 59 -88 99 -100 114 -312 314 -422 397 -30 22 -57 43 -60
46 -15 17 -124 82 -171 103 -59 27 -103 36 -134 29z"/>
<path d="M22414 30858 c-3 -4 -12 -8 -21 -8 -32 0 -85 -53 -111 -109 -23 -50
-26 -68 -25 -171 0 -104 18 -248 43 -355 5 -22 21 -92 36 -155 110 -482 353
-1030 642 -1450 85 -123 309 -421 364 -485 111 -128 149 -168 262 -284 295
-302 629 -576 1092 -896 32 -22 88 -60 124 -85 154 -108 615 -379 860 -507
249 -130 738 -343 1065 -465 252 -93 755 -245 1017 -307 536 -127 1035 -219
1488 -275 570 -70 970 -96 1495 -96 674 0 1298 51 2015 165 261 42 878 179
1215 271 645 176 1525 535 2080 847 434 245 656 387 960 615 448 337 832 696
1169 1095 124 147 230 292 335 457 276 434 450 850 556 1325 94 423 115 659
69 775 -33 81 -141 121 -273 100 -181 -29 -286 -70 -493 -193 -281 -165 -487
-415 -710 -862 -88 -176 -168 -314 -277 -480 -359 -548 -749 -931 -1408 -1382
-178 -122 -481 -296 -743 -426 -252 -126 -299 -148 -415 -197 -27 -12 -59 -25
-70 -30 -61 -28 -440 -173 -620 -238 -206 -74 -420 -141 -710 -220 -417 -114
-1095 -231 -1605 -277 -477 -44 -542 -47 -965 -52 -455 -5 -606 2 -1145 52
-606 56 -1363 196 -1870 345 -58 17 -150 44 -205 60 -195 57 -396 129 -710
253 -178 71 -230 93 -330 137 -22 10 -83 37 -135 60 -453 199 -998 526 -1330
799 -58 47 -125 102 -150 121 -136 104 -521 479 -615 599 -28 35 -71 90 -97
122 -27 32 -48 63 -48 69 0 5 -4 10 -8 10 -7 0 -46 54 -107 148 -5 9 -25 38
-42 64 -18 26 -33 52 -33 57 0 5 -6 14 -14 20 -8 7 -22 26 -31 44 -9 18 -25
46 -35 62 -11 17 -26 44 -34 60 -22 42 -68 123 -97 170 -25 39 -42 68 -74 130
-9 17 -24 44 -35 60 -11 17 -25 41 -32 55 -7 14 -16 30 -21 35 -4 6 -32 47
-61 93 -30 45 -70 102 -90 126 -20 25 -36 47 -36 51 0 4 -11 16 -25 27 -14 11
-25 24 -25 29 0 17 -139 149 -220 209 -19 14 -42 33 -52 43 -10 9 -22 17 -26
17 -5 0 -17 9 -27 20 -10 11 -23 20 -30 20 -6 0 -36 17 -66 38 -63 43 -171
102 -189 102 -7 0 -26 6 -43 14 -84 37 -336 61 -353 34z"/>
<path d="M13345 22634 c-121 -29 -197 -66 -283 -137 -160 -132 -231 -325 -203
-550 17 -145 72 -257 170 -349 193 -183 483 -226 726 -109 153 75 240 168 298
321 55 147 49 345 -15 475 -61 126 -113 185 -218 253 -153 99 -322 133 -475
96z"/>
<path d="M10876 22461 c-4 -7 -5 -1302 -2 -2879 4 -1577 6 -2882 6 -2899 l0
-33 501 0 502 0 -7 188 c-4 103 -8 1410 -9 2904 l-2 2718 -175 0 c-96 0 -317
3 -491 7 -242 5 -318 3 -323 -6z"/>
<path d="M21293 19554 c-2 -2612 0 -2915 13 -2910 9 3 235 6 502 6 l487 0 -3
2907 -2 2908 -498 3 -497 2 -2 -2916z"/>
<path d="M30942 19564 l3 -2909 490 -1 490 -2 -3 2901 c-2 1596 -5 2903 -6
2905 -2 1 -222 5 -489 9 l-487 6 2 -2909z"/>
<path d="M15254 21278 l7 -518 -321 7 -320 6 0 -429 0 -429 317 3 318 4 -3
-694 c-4 -828 10 -1425 38 -1573 58 -318 170 -547 357 -733 227 -225 536 -332
963 -334 228 -1 399 26 615 97 99 32 256 109 284 139 l21 22 -39 115 c-22 63
-60 173 -86 244 -65 181 -90 261 -105 328 -14 61 -22 68 -48 38 -17 -19 -61
-46 -132 -82 -32 -15 -118 -39 -195 -53 -74 -14 -260 -9 -335 9 -3 1 -22 9
-44 18 -21 9 -40 17 -42 17 -2 0 -20 12 -41 26 -105 71 -182 207 -202 359 -13
98 -19 417 -25 1413 l-4 642 520 0 520 0 -6 93 c-3 50 -5 239 -6 420 l0 328
-507 -1 -508 -1 -3 515 -2 516 -438 1 c-240 0 -464 2 -496 3 l-59 3 7 -519z"/>
<path d="M18344 21785 c-2 -5 -5 -239 -7 -520 l-2 -510 -60 0 c-33 0 -183 3
-332 8 l-273 7 0 -426 0 -426 333 3 332 4 2 -910 c2 -500 7 -989 13 -1085 22
-383 83 -609 226 -827 224 -345 596 -514 1129 -515 301 0 549 57 788 180 59
30 112 61 118 68 12 15 5 37 -95 309 -84 224 -114 314 -135 397 l-18 69 -24
-24 c-27 -26 -114 -87 -124 -87 -4 0 -21 -6 -38 -14 -107 -48 -355 -72 -479
-47 -102 22 -205 85 -264 162 -15 21 -69 138 -84 183 -26 82 -32 252 -37 1175
-4 787 -3 955 8 962 8 4 106 6 219 4 113 -2 348 -5 523 -7 l318 -3 0 428 0
428 -328 0 c-180 -1 -421 -4 -536 -8 l-207 -6 2 516 3 517 -484 2 c-316 2
-485 0 -487 -7z"/>
<path d="M44628 20840 c-26 -5 -73 -11 -105 -14 -52 -5 -145 -24 -270 -55 -38
-10 -88 -27 -148 -51 -216 -86 -456 -254 -575 -404 -25 -31 -48 -56 -52 -56
-5 0 -8 115 -8 255 l0 255 -395 2 c-217 1 -427 3 -466 3 l-71 0 4 -1190 c1
-654 2 -1925 0 -2822 l-3 -1633 495 0 496 0 -5 403 c-14 1178 -15 1597 -2
1597 7 0 41 -29 76 -66 55 -57 208 -180 281 -225 137 -86 287 -148 457 -189
172 -42 298 -54 498 -47 481 18 866 157 1220 442 187 151 324 323 463 585 104
197 173 404 219 661 25 141 27 174 27 394 -1 226 -9 337 -33 458 -38 189 -54
256 -91 367 -22 69 -44 134 -49 145 -55 123 -76 163 -124 244 -31 52 -57 97
-57 102 0 4 -3 9 -7 11 -13 5 -73 86 -73 98 0 6 -7 13 -15 17 -9 3 -22 18 -30
32 -7 15 -54 67 -104 117 -326 323 -705 501 -1191 559 -133 16 -285 18 -362 5z
m155 -890 c326 -32 592 -193 773 -467 154 -234 219 -473 219 -803 -1 -298 -56
-487 -212 -730 -51 -78 -231 -270 -254 -270 -5 0 -17 -7 -26 -15 -47 -41 -82
-65 -96 -65 -9 0 -22 -6 -29 -12 -19 -18 -56 -38 -68 -38 -6 0 -31 -9 -55 -20
-25 -11 -48 -19 -52 -19 -4 1 -15 0 -23 -4 -26 -10 -94 -21 -114 -19 -10 1
-24 -2 -30 -8 -27 -22 -292 -15 -388 10 -102 27 -154 43 -163 50 -5 4 -28 13
-50 20 -104 34 -251 134 -358 244 -108 110 -109 112 -169 205 -74 116 -133
279 -164 455 -28 158 -13 500 25 606 5 14 17 52 27 85 25 90 126 291 183 366
104 136 255 259 403 327 202 93 391 124 621 102z"/>
<path d="M25077 20834 c-1 -1 -46 -5 -100 -8 -54 -3 -102 -8 -107 -11 -10 -6
-133 -25 -165 -26 -10 0 -24 -4 -30 -8 -5 -5 -46 -16 -90 -26 -44 -10 -85 -22
-90 -26 -6 -4 -33 -15 -60 -24 -104 -35 -418 -193 -445 -225 -3 -3 -32 -23
-65 -45 -67 -45 -303 -275 -353 -345 -242 -338 -359 -609 -428 -990 -24 -132
-25 -568 -1 -720 67 -426 192 -718 447 -1041 79 -100 184 -199 317 -298 337
-250 651 -375 1093 -437 94 -13 480 -16 582 -5 242 28 490 78 593 121 11 4 45
18 75 30 187 76 381 199 578 369 79 67 146 129 149 136 3 9 -43 66 -119 147
-236 255 -393 437 -411 476 -6 12 -16 22 -24 22 -7 0 -18 -10 -23 -22 -30 -72
-202 -198 -402 -296 -175 -85 -271 -116 -433 -138 -16 -2 -95 -4 -175 -5 -139
-1 -262 15 -405 52 -22 6 -67 18 -100 26 -135 36 -343 154 -472 270 -36 32
-133 148 -133 159 0 4 -6 15 -14 23 -22 24 -101 180 -142 279 -20 47 -45 99
-56 115 -11 15 -18 30 -15 33 6 6 1767 5 1776 -1 4 -2 310 -5 681 -6 l675 -2
-3 109 c-6 214 -33 611 -48 699 -61 364 -198 682 -405 940 -89 110 -256 272
-320 310 -9 6 -47 31 -85 56 -129 86 -262 156 -369 193 -27 10 -59 22 -70 26
-52 22 -147 49 -220 64 -44 9 -102 21 -130 27 -96 19 -442 37 -458 23z m335
-858 c270 -57 509 -205 633 -392 65 -98 103 -181 151 -334 25 -80 49 -157 54
-172 5 -16 6 -28 2 -28 -4 0 -499 -1 -1099 -3 -601 -1 -1093 0 -1093 4 0 4 11
35 24 70 13 35 36 98 50 140 74 215 183 375 342 505 240 196 611 279 936 210z"/>
<path d="M34730 20834 c-211 -20 -332 -39 -443 -69 -341 -94 -661 -268 -890
-484 -216 -204 -390 -466 -501 -753 -63 -163 -75 -212 -121 -460 -36 -199 -40
-493 -10 -683 8 -49 17 -110 20 -135 20 -135 89 -338 175 -515 204 -420 500
-711 948 -934 94 -47 271 -115 342 -132 253 -61 356 -77 550 -85 335 -15 809
88 1084 235 401 215 693 508 892 896 101 198 149 356 195 650 26 166 30 591 6
632 -3 5 -8 37 -11 72 -10 98 -42 234 -89 381 -42 134 -73 206 -176 405 -18
37 -114 178 -150 222 -63 79 -212 230 -276 282 -136 111 -339 236 -475 293
-77 33 -98 41 -185 69 -213 70 -437 108 -670 113 -93 2 -190 2 -215 0z m275
-889 c103 -8 183 -28 320 -79 16 -6 58 -25 93 -43 210 -107 342 -244 460 -478
83 -167 146 -451 146 -665 0 -355 -147 -711 -383 -925 -24 -22 -56 -52 -72
-67 -17 -16 -36 -28 -44 -28 -8 0 -15 -4 -15 -9 0 -5 -15 -16 -32 -26 -18 -9
-58 -29 -88 -45 -30 -16 -63 -29 -72 -29 -10 -1 -18 -5 -18 -11 0 -5 -10 -10
-23 -10 -13 0 -27 -4 -32 -9 -12 -12 -211 -52 -285 -58 -30 -2 -62 -5 -70 -6
-8 -1 -53 3 -100 8 -105 11 -102 11 -120 18 -8 3 -35 10 -60 16 -96 21 -135
33 -145 42 -5 5 -16 9 -25 9 -16 0 -190 86 -200 99 -3 3 -30 23 -60 44 -60 41
-150 120 -150 132 0 4 -11 16 -25 27 -14 11 -25 25 -25 32 0 7 -9 21 -20 31
-11 10 -20 24 -20 31 0 7 -6 17 -13 21 -7 4 -18 19 -25 33 -6 14 -16 32 -21
40 -28 47 -69 139 -64 144 3 3 0 13 -8 22 -8 10 -20 42 -27 73 -7 31 -17 76
-23 101 -6 25 -12 56 -14 70 -2 14 -8 51 -13 84 -15 97 -5 351 17 462 57 277
167 490 343 665 124 124 276 206 470 255 91 23 289 45 343 38 11 -2 56 -6 100
-9z"/>
<path d="M39385 20825 c-189 -20 -396 -65 -490 -105 -11 -5 -46 -18 -77 -29
-124 -44 -394 -190 -493 -267 -218 -168 -366 -338 -514 -588 -263 -443 -358
-1004 -265 -1561 16 -97 15 -93 70 -270 114 -366 316 -673 601 -914 172 -145
491 -325 693 -389 110 -35 335 -85 465 -103 117 -16 439 -16 535 0 180 30 342
66 445 98 215 68 451 195 635 342 169 134 364 356 467 528 136 229 244 532
273 763 30 247 20 652 -22 850 -11 52 -23 113 -28 135 -34 159 -162 458 -265
615 -155 238 -398 465 -670 626 -185 110 -459 207 -720 253 -178 32 -428 38
-640 16z m375 -876 c89 -10 238 -44 305 -69 53 -20 205 -99 250 -130 152 -104
284 -281 359 -477 131 -349 139 -751 19 -1072 -36 -98 -87 -198 -136 -266 -15
-22 -40 -58 -55 -79 -39 -58 -167 -176 -189 -176 -7 0 -13 -5 -13 -10 0 -6
-10 -15 -22 -20 -13 -6 -41 -21 -63 -35 -71 -42 -173 -88 -235 -104 -25 -7
-57 -16 -72 -21 -15 -4 -37 -6 -48 -3 -11 3 -20 1 -20 -5 0 -5 -19 -11 -42
-12 -88 -4 -97 -5 -104 -12 -4 -4 -16 -6 -28 -3 -12 2 -58 6 -103 9 -45 4 -92
10 -105 15 -13 5 -48 12 -78 16 -30 4 -59 11 -65 15 -5 4 -26 11 -45 15 -19 4
-39 11 -45 15 -5 4 -34 16 -64 26 -29 10 -56 25 -58 31 -3 7 -13 13 -23 13
-10 0 -23 7 -30 15 -7 8 -18 15 -24 15 -37 0 -286 224 -286 257 0 7 -4 13 -10
13 -5 0 -16 12 -25 28 -9 15 -24 41 -35 57 -29 46 -90 174 -90 190 0 8 -4 16
-9 19 -5 3 -11 18 -14 33 -3 16 -12 53 -21 83 -52 177 -63 470 -26 666 84 443
340 768 710 903 85 31 168 50 250 57 41 3 76 7 77 8 8 7 132 5 213 -5z"/>
<path d="M48820 20830 c-146 -12 -454 -63 -475 -80 -5 -4 -26 -10 -45 -14 -19
-3 -77 -22 -129 -42 -287 -107 -495 -247 -622 -418 -168 -225 -242 -452 -242
-746 0 -331 91 -571 291 -767 221 -216 471 -310 1222 -458 449 -89 621 -148
717 -247 106 -109 123 -294 39 -420 -73 -109 -217 -175 -467 -214 -192 -29
-510 -9 -739 47 -259 64 -630 230 -762 340 -27 22 -52 38 -57 35 -5 -3 -25
-48 -46 -98 -48 -122 -224 -535 -264 -620 -17 -36 -31 -72 -31 -80 0 -19 456
-240 580 -282 220 -72 576 -143 850 -167 125 -11 401 -8 520 6 475 56 828 192
1055 406 210 199 328 417 375 694 15 90 21 240 9 265 -3 6 -8 67 -9 97 0 13
-6 42 -14 65 -8 24 -17 57 -21 73 -18 68 -39 123 -53 137 -7 7 -12 20 -12 29
0 9 -7 22 -15 29 -8 7 -15 18 -15 25 0 6 -9 20 -20 30 -11 10 -20 23 -20 28 0
20 -138 172 -191 209 -285 204 -553 299 -1114 398 -149 26 -410 85 -513 116
-203 62 -279 116 -322 230 -73 197 2 381 193 469 169 78 332 105 602 101 177
-3 216 -7 345 -35 129 -27 266 -67 400 -116 76 -27 183 -86 231 -126 26 -22
51 -39 56 -39 7 0 303 675 339 772 5 15 -20 31 -144 91 -176 87 -300 133 -484
181 -170 44 -210 52 -398 76 -166 22 -458 32 -600 20z"/>
<path d="M12978 18728 c2 -1135 6 -2066 10 -2070 4 -4 230 -8 502 -8 468 0
495 1 492 17 -6 41 -18 1821 -20 2928 l-2 1190 -493 3 -492 2 3 -2062z"/>
<path d="M28923 19282 l-1053 -2 1 -238 c1 -130 4 -325 8 -434 l6 -196 1025
-6 c564 -4 1037 -9 1053 -12 l27 -6 -6 449 c-3 246 -6 448 -7 448 -1 0 -476
-1 -1054 -3z"/>
</g>
</svg>
