<?xml version="1.0" standalone="no"?>
<!DOCTYPE svg PUBLIC "-//W3C//DTD SVG 20010904//EN"
 "http://www.w3.org/TR/2001/REC-SVG-20010904/DTD/svg10.dtd">
<svg version="1.0" xmlns="http://www.w3.org/2000/svg"
 width="1368.000000pt" height="1368.000000pt" viewBox="0 0 1368.000000 1368.000000"
 preserveAspectRatio="xMidYMid meet">
<metadata>
Created by potrace 1.16, written by Peter Selinger 2001-2019
</metadata>
<g transform="translate(0.000000,1368.000000) scale(0.100000,-0.100000)"
fill="#000000" stroke="none">
<path d="M6455 13424 c-822 -53 -1496 -197 -2189 -470 -198 -78 -685 -316
-827 -404 -617 -384 -1076 -780 -1429 -1235 -340 -438 -603 -989 -714 -1495
-192 -868 -58 -1737 386 -2509 189 -329 411 -613 705 -902 219 -216 327 -307
628 -526 277 -201 680 -431 1000 -568 61 -26 124 -53 140 -61 88 -38 268 -105
400 -149 543 -178 878 -255 1393 -319 342 -43 466 -50 942 -50 365 -1 491 3
635 17 902 89 1677 310 2430 692 382 194 824 490 1135 760 104 91 383 372 471
475 332 387 604 870 748 1325 171 543 206 1166 95 1715 -99 493 -310 991 -607
1435 -179 267 -506 627 -772 851 -434 365 -1058 734 -1600 947 -582 229 -1237
387 -1805 437 -69 6 -165 15 -215 21 -89 10 -834 20 -950 13z m895 -855 c137
-12 270 -29 481 -64 633 -102 1101 -251 1684 -535 513 -251 1062 -669 1369
-1044 354 -432 550 -827 654 -1321 83 -390 68 -863 -39 -1257 -183 -678 -648
-1295 -1340 -1781 -142 -100 -266 -173 -276 -164 -3 3 4 18 15 34 38 54 181
339 225 448 51 127 83 229 126 400 67 270 91 458 91 722 0 560 -167 1158 -459
1643 -240 399 -577 759 -961 1027 -539 377 -1091 578 -1735 633 -156 13 -528
13 -675 0 -608 -56 -1173 -255 -1680 -593 -248 -166 -594 -482 -762 -697 -133
-170 -293 -421 -386 -605 -210 -420 -332 -944 -332 -1425 0 -250 29 -406 106
-570 75 -160 169 -272 340 -406 174 -135 365 -238 634 -339 63 -24 141 -55
173 -69 95 -43 110 -33 54 37 -82 102 -216 356 -282 531 -41 112 -105 353
-130 496 -26 147 -31 437 -11 597 56 434 237 864 509 1206 195 245 482 490
762 649 432 246 830 352 1320 352 490 -1 818 -78 1235 -291 80 -41 152 -80
160 -87 8 -6 26 -17 40 -24 51 -26 271 -190 370 -276 186 -163 388 -410 532
-651 124 -208 245 -551 283 -805 107 -697 -152 -1436 -695 -1981 -232 -235
-428 -375 -725 -520 -276 -135 -434 -183 -740 -228 -305 -44 -579 -49 -970
-16 -535 45 -871 112 -1345 267 -523 171 -977 387 -1380 659 -356 239 -689
552 -931 874 -284 377 -479 838 -546 1290 -25 170 -25 583 0 745 80 511 257
921 592 1368 116 156 389 440 555 578 666 554 1569 958 2500 1118 285 49 539
77 810 90 129 6 659 -4 780 -15z"/>
<path d="M12275 6600 c-103 -53 -139 -83 -356 -299 -212 -211 -259 -275 -389
-526 -243 -469 -391 -687 -638 -939 -95 -97 -370 -338 -487 -427 -103 -79
-324 -222 -485 -314 -419 -240 -970 -455 -1477 -576 -646 -154 -1374 -218
-2000 -174 -289 21 -557 51 -723 81 -74 14 -180 34 -235 44 -187 35 -368 79
-539 131 -70 21 -132 39 -137 39 -5 0 -80 25 -166 56 -720 255 -1329 630
-1818 1119 -242 241 -402 464 -587 815 -89 170 -106 199 -193 330 -115 173
-195 269 -332 400 -145 138 -215 193 -303 237 -82 40 -104 41 -134 8 -30 -32
-44 -88 -58 -228 -38 -400 98 -908 365 -1363 145 -249 342 -514 511 -692 160
-168 513 -480 661 -586 98 -70 451 -300 560 -365 128 -77 518 -273 675 -339
380 -160 684 -255 1245 -387 461 -109 1282 -186 1805 -171 585 18 987 70 1575
207 703 163 1344 420 1895 762 286 177 405 263 638 460 275 232 388 342 555
542 299 356 460 616 602 974 104 262 155 531 155 811 0 234 -27 372 -78 399
-27 15 -21 16 -107 -29z"/>
<path d="M1295 3969 c-17 -4 -44 -22 -60 -39 -29 -30 -30 -35 -33 -138 -4
-121 20 -265 82 -479 174 -604 571 -1184 1116 -1629 170 -139 219 -177 364
-279 377 -265 775 -481 1205 -654 688 -277 1396 -436 2331 -522 212 -20 948
-17 1195 4 239 21 218 18 530 63 567 80 1141 228 1601 412 190 76 452 191 569
250 217 108 555 309 725 430 450 322 819 682 1062 1037 187 272 331 582 402
861 63 248 100 546 77 616 -16 50 -61 73 -141 72 -122 0 -250 -48 -408 -150
-164 -106 -310 -289 -442 -554 -228 -458 -507 -785 -955 -1119 -234 -175 -379
-262 -685 -414 -508 -253 -1074 -443 -1610 -541 -547 -99 -950 -132 -1500
-122 -485 8 -836 47 -1366 151 -193 38 -356 81 -639 167 -317 97 -856 332
-1135 496 -275 161 -549 369 -789 597 -167 159 -385 445 -500 659 -230 425
-362 584 -601 727 -94 57 -146 77 -238 95 -82 16 -113 16 -157 3z"/>
</g>
</svg>
